HIERARCHY
ROOT root
{
	OFFSET	0	13.1	24.9
	CHANNELS 6  Xposition Yposition Zposition Xrotation Yrotation Zrotation
	JOINT spine_1
	{
		OFFSET	0	9.99999	0
		CHANNELS 3  Xrotation Yrotation Zrotation
		JOINT spine_2
		{
			OFFSET	0	112	-10
			CHANNELS 3  Xrotation Yrotation Zrotation
			JOINT spine_3
			{
				OFFSET	0	206.5	19.3
				CHANNELS 3  Xrotation Yrotation Zrotation
				JOINT spine_4
				{
					OFFSET	0	110.4	14.6
					CHANNELS 3  Xrotation Yrotation Zrotation
					JOINT neck_1
					{
						OFFSET	0	71.8	-50.3
						CHANNELS 3  Xrotation Yrotation Zrotation
						JOINT neck_2
						{
							OFFSET	0	86.2	-25.8
							CHANNELS 3  Xrotation Yrotation Zrotation
							JOINT head_ee
							{
								OFFSET	0	179.8	-8.7
								CHANNELS 3  Xrotation Yrotation Zrotation
								End Site
								{
									OFFSET	1	0	0
								}
							}
						}
					}
					JOINT left_clavicle
					{
						OFFSET	-43.2	22.4	-70.8
						CHANNELS 3  Xrotation Yrotation Zrotation
						JOINT left_shoulder
						{
							OFFSET	-93.9	-5.79999	48.7
							CHANNELS 3  Xrotation Yrotation Zrotation
							JOINT left_elbow
							{
								OFFSET	-291.4	-30.8	15.2
								CHANNELS 3  Xrotation Yrotation Zrotation
								JOINT left_lowarm_twist
								{
									OFFSET	-110.7	-3.89999	13.6
									CHANNELS 3  Xrotation Yrotation Zrotation
									JOINT left_hand
									{
										OFFSET	-110.7	-3.89999	13.6
										CHANNELS 3  Xrotation Yrotation Zrotation
										JOINT left_ee
										{
											OFFSET	-80.8	-5.10001	12.1
											CHANNELS 3  Xrotation Yrotation Zrotation
											End Site
											{
												OFFSET	1	0	0
											}
										}
									}
								}
							}
						}
					}
					JOINT right_clavicle
					{
						OFFSET	43.2	22.4	-70.8
						CHANNELS 3  Xrotation Yrotation Zrotation
						JOINT right_shoulder
						{
							OFFSET	93.9	-5.79999	48.7
							CHANNELS 3  Xrotation Yrotation Zrotation
							JOINT right_elbow
							{
								OFFSET	291.4	-30.8	15.2
								CHANNELS 3  Xrotation Yrotation Zrotation
								JOINT right_lowarm_twist
								{
									OFFSET	110.7	-3.89999	13.6
									CHANNELS 3  Xrotation Yrotation Zrotation
									JOINT right_hand
									{
										OFFSET	110.7	-3.89999	13.6
										CHANNELS 3  Xrotation Yrotation Zrotation
										JOINT right_ee
										{
											OFFSET	80.8	-5.10001	12.1
											CHANNELS 3  Xrotation Yrotation Zrotation
											End Site
											{
												OFFSET	1	0	0
											}
										}
									}
								}
							}
						}
					}
				}
			}
		}
	}
	JOINT left_hip
	{
		OFFSET	-82.8	-127.5	0.300001
		CHANNELS 3  Xrotation Yrotation Zrotation
		JOINT left_knee
		{
			OFFSET	-28.2	-396.7	2.2
			CHANNELS 3  Xrotation Yrotation Zrotation
			JOINT left_ankle
			{
				OFFSET	-11.7	-411.3	35.4
				CHANNELS 3  Xrotation Yrotation Zrotation
				JOINT left_toes
				{
					OFFSET	0	-60	-88.6
					CHANNELS 3  Xrotation Yrotation Zrotation
					JOINT left_foot_ee
					{
						OFFSET	-22.5	-16.5	-42.2
						CHANNELS 3  Xrotation Yrotation Zrotation
						End Site
						{
							OFFSET	1	0	0
						}
					}
				}
			}
		}
	}
	JOINT right_hip
	{
		OFFSET	82.8	-127.5	0.300001
		CHANNELS 3  Xrotation Yrotation Zrotation
		JOINT right_knee
		{
			OFFSET	28.2	-396.7	2.2
			CHANNELS 3  Xrotation Yrotation Zrotation
			JOINT right_ankle
			{
				OFFSET	11.7	-411.3	35.4
				CHANNELS 3  Xrotation Yrotation Zrotation
				JOINT right_toes
				{
					OFFSET	0	-60	-88.6
					CHANNELS 3  Xrotation Yrotation Zrotation
					JOINT right_foot_ee
					{
						OFFSET	22.5	-16.5	-42.2
						CHANNELS 3  Xrotation Yrotation Zrotation
						End Site
						{
							OFFSET	1	0	0
						}
					}
				}
			}
		}
	}
}
MOTION
Frames: 16
Frame Time: 0.02
1305.48 753.936 -1500.66 -176.062 71.1561 171.444 -0.283175 0.658377 4.32118 -0.272871 0.382342 4.35423 -0.2376 -0.560032 4.335 -0.263792 0.130952 4.369 -6.62215 -7.77767 -8.68297 -6.42509 -8.0903 -10.2128 -0.0 0.0 -0.0 -1.83703 -17.4873 -6.00666 7.05514 -27.4246 58.6728 1.78454 -41.4731 0.675669 -41.3714 -3.09818 4.15741 -0.719164 3.87548 -3.12033 -0.0 0.0 -0.0 10.0808 -18.873 -17.7776 -34.0738 9.94636 -63.2696 1.07577 28.0527 -0.268753 7.89357 -0.210503 0.98555 0.980434 -20.4204 -14.166 0.0 0.0 0.0 9.36263 -5.41324 6.89046 -9.10819 0.266506 1.37095 19.8659 -27.2751 -3.28699 33.7062 -0.0 -0.0 -0.0 0.0 -0.0 19.519 -1.12599 6.79774 -44.9032 0.807802 -6.67062 14.5712 -27.6489 2.16781 -25.1692 0.0 0.0 0.0 0.0 0.0 
1287.17 757.587 -1497.45 -178.479 72.3623 173.705 -0.311376 0.628737 4.34802 -0.30093 0.351059 4.37914 -0.267802 -0.598329 4.3523 -0.294214 0.0958581 4.39212 -6.15103 -7.94632 -8.37582 -5.96682 -8.53529 -9.92044 -0.0 0.0 -0.0 -1.61241 -17.2604 -5.49287 8.00128 -26.8676 58.166 1.83645 -42.2895 0.710328 -41.1098 -3.06995 4.13922 -0.862359 4.01661 -4.00458 -0.0 0.0 -0.0 9.79538 -18.3525 -17.3909 -34.6579 9.81768 -63.432 1.06943 27.9123 -0.265778 7.18738 -0.197227 0.896319 1.12805 -19.9902 -14.9348 0.0 0.0 0.0 8.49598 -5.49531 6.73082 -10.7227 0.290848 1.61749 20.0183 -27.7471 -3.32811 34.3186 -0.0 -0.0 -0.0 0.0 -0.0 20.0382 -0.404767 6.67767 -41.7906 0.584593 -6.2471 13.9875 -24.9347 2.05213 -25.0903 0.0 0.0 0.0 0.0 0.0 
1275.93 760.408 -1497.92 -176.363 73.9319 171.713 -0.286696 0.553597 4.32519 -0.276335 0.277519 4.35158 -0.249254 -0.663018 4.3098 -0.275165 0.025283 4.36033 -5.49642 -8.21818 -8.10619 -5.32139 -9.10902 -9.6735 -0.0 0.0 -0.0 -1.29258 -17.4856 -4.83093 9.19239 -26.2243 57.4842 1.88406 -43.0198 0.742583 -40.7425 -3.03047 4.11347 -1.03928 4.21417 -5.08678 -0.0 0.0 -0.0 9.70127 -17.9038 -17.3032 -35.2945 9.82226 -64.0122 1.06341 27.7787 -0.262965 6.15918 -0.175932 0.766703 1.25577 -19.3472 -15.5203 0.0 0.0 0.0 7.2683 -4.8849 6.07265 -12.8912 0.312593 1.94947 20.1274 -28.4031 -3.37113 34.9318 -0.0 -0.0 -0.0 0.0 -0.0 20.4369 0.491522 7.58824 -37.6932 0.326569 -5.67262 13.0644 -21.2023 1.88873 -25.013 0.0 0.0 0.0 0.0 0.0 
1261.74 749.408 -1491.67 -176.834 74.6968 172.118 -0.296369 0.488765 4.31935 -0.286018 0.213187 4.34164 -0.263995 -0.724991 4.2861 -0.28962 -0.0396497 4.34668 -4.51512 -8.43831 -7.64355 -4.35371 -9.67113 -9.20285 -0.0 0.0 -0.0 -1.31374 -17.8779 -4.92464 10.6541 -25.7935 56.5499 1.94137 -43.8768 0.782001 -40.3248 -2.98577 4.08389 -1.04441 4.12544 -5.16016 -0.0 0.0 -0.0 9.54311 -17.0552 -17.1617 -35.7684 9.64202 -63.7136 1.05492 27.5898 -0.25902 5.47533 -0.160482 0.680713 1.35029 -18.1021 -15.7105 0.0 0.0 0.0 7.10079 -3.58282 6.55912 -15.077 0.321783 2.28471 19.3679 -29.1539 -3.28899 35.3517 -0.0 -0.0 -0.0 0.0 -0.0 20.3829 1.43774 8.11175 -31.594 0.0202802 -4.78758 11.8807 -18.9971 1.71017 -25.3329 0.0 0.0 0.0 0.0 0.0 
1251.8 750.461 -1490.4 -174.811 75.8643 169.272 -0.390945 0.471173 4.25342 -0.380905 0.199815 4.27473 -0.36008 -0.730745 4.21665 -0.384879 -0.0562681 4.27902 -3.11367 -8.77553 -7.05237 -2.96338 -10.4733 -8.58982 -0.0 0.0 -0.0 -1.34945 -18.0993 -5.02881 11.5364 -25.1745 56.0186 1.99704 -44.6861 0.820868 -39.6989 -2.9192 4.03895 -1.02185 3.88234 -5.11881 -0.0 0.0 -0.0 9.45844 -15.8831 -17.1769 -35.4433 9.67369 -63.4696 1.06148 27.7359 -0.262067 4.57163 -0.138492 0.567369 1.48679 -16.3111 -15.9936 0.0 0.0 0.0 7.01066 -1.65863 7.13635 -16.8622 0.319799 2.55858 18.3466 -30.0844 -3.17172 35.965 -0.0 -0.0 -0.0 0.0 -0.0 20.1997 2.32256 8.99868 -23.1002 -0.245955 -3.51242 10.2078 -16.0532 1.46478 -25.82 0.0 0.0 0.0 0.0 0.0 
1244.07 758.584 -1484.71 -172.921 77.2313 167.044 -0.554611 0.690957 4.1676 -0.54505 0.424601 4.20304 -0.507284 -0.50593 4.19404 -0.531787 0.16218 4.22128 -1.17357 -9.2573 -6.61234 -1.01884 -11.3195 -8.11227 -0.0 0.0 -0.0 -1.361 -17.6998 -5.00481 12.1225 -25.7585 56.1462 2.06509 -45.6455 0.869125 -40.3646 -2.99002 4.08672 -0.946538 3.35786 -4.85194 -0.0 0.0 -0.0 9.40002 -14.2347 -17.2829 -34.6298 9.90709 -63.4568 1.10413 28.6758 -0.282225 4.58662 -0.138872 0.569246 1.76193 -15.9891 -17.6674 0.0 0.0 0.0 6.51719 -1.1325 6.78688 -14.713 0.32114 2.22886 16.7539 -31.2214 -2.96728 35.7739 -0.0 -0.0 -0.0 0.0 -0.0 19.9831 2.93681 10.3756 -13.1878 -0.31459 -1.99494 5.7023 -15.9366 0.829482 -25.986 0.0 0.0 0.0 0.0 0.0 
1232.95 753.878 -1479.58 -174.138 78.0741 168.257 -0.699918 0.774252 4.03071 -0.69103 0.516416 4.07172 -0.647547 -0.397315 4.08504 -0.67074 0.252268 4.09653 -1.04016 -9.01668 -6.58134 -0.88991 -10.885 -8.04686 -0.0 0.0 -0.0 -1.55236 -18.1014 -5.46772 12.9919 -26.6664 56.097 2.22356 -47.7585 0.984483 -40.4058 -2.99442 4.08965 -0.898577 3.17324 -4.61522 -0.0 0.0 -0.0 9.28626 -13.2758 -17.1943 -34.5204 10.0627 -63.4329 1.11449 28.9016 -0.287215 4.61431 -0.139571 0.572714 1.83256 -14.9576 -17.7954 0.0 0.0 0.0 4.4998 -1.28744 7.02919 -11.6458 0.301641 1.75871 16.9161 -30.5589 -2.96631 35.8067 -0.0 -0.0 -0.0 0.0 -0.0 20.2016 3.63923 11.6449 -4.83859 -0.168759 -0.723183 4.69442 -15.4983 0.684115 -26.1515 0.0 0.0 0.0 0.0 0.0 
1222.4 738.668 -1481.04 -172.264 77.7376 166.908 -0.900099 0.758233 3.7263 -0.892526 0.519755 3.76692 -0.852033 -0.340035 3.78734 -0.871949 0.26193 3.79353 -0.870007 -8.66597 -6.53849 -0.726207 -10.2561 -7.95621 -0.0 0.0 -0.0 -1.86363 -18.6411 -6.20905 14.5801 -27.0144 55.6469 2.47312 -50.7689 1.17364 -40.4756 -3.00188 4.09461 -0.84038 3.05467 -4.28126 -0.0 0.0 -0.0 9.09861 -12.9173 -16.9011 -34.5546 9.82194 -63.6212 1.12107 29.0446 -0.290403 4.68594 -0.141373 0.581686 1.87314 -13.4612 -17.5707 0.0 0.0 0.0 1.68912 -1.49892 7.62483 -7.24615 0.229818 1.08758 17.1018 -29.608 -2.95817 35.7055 -0.0 -0.0 -0.0 0.0 -0.0 21.0994 4.30951 10.6611 4.70036 0.2219 0.686818 3.2264 -14.8693 0.471413 -26.4018 0.0 0.0 0.0 0.0 0.0 
1203.32 738.903 -1481.34 -177.442 77.8876 172.061 -1.19589 0.747317 3.67464 -1.18852 0.512141 3.71467 -1.14855 -0.355062 3.73294 -1.16791 0.238516 3.74218 -1.09169 -8.11388 -6.54866 -0.956675 -9.29535 -7.91063 -0.0 0.0 -0.0 -1.90674 -19.0247 -6.35033 14.5704 -27.1986 55.7705 2.53848 -51.4986 1.22453 -40.8159 -3.03835 4.11864 -0.756574 3.07951 -3.71467 -0.0 0.0 -0.0 9.1254 -12.5359 -16.9887 -34.3978 9.44095 -64.0084 1.12069 29.0362 -0.290215 4.7887 -0.143938 0.594563 1.84951 -12.8126 -17.1969 0.0 0.0 0.0 0.847105 -1.488 6.33101 -7.97954 0.245368 1.19905 16.068 -29.4959 -2.79057 35.5418 -0.0 -0.0 -0.0 0.0 -0.0 21.5586 4.7657 10.9962 6.45744 0.31924 0.938648 3.36298 -14.222 0.490582 -26.2697 0.0 0.0 0.0 0.0 0.0 
1187.39 738.874 -1483.73 -179.068 77.1801 173.95 -1.2554 0.723632 3.60778 -1.2483 0.49275 3.64645 -1.21031 -0.362227 3.6617 -1.22895 0.220213 3.67296 -1.26146 -7.36008 -6.52861 -1.13643 -7.98413 -7.80523 -0.0 0.0 -0.0 -1.94403 -19.5569 -6.49718 14.522 -27.4467 56.0031 2.63347 -52.5189 1.2994 -41.3013 -3.09061 4.15255 -0.637121 3.12136 -2.90511 -0.0 0.0 -0.0 9.16223 -12.0221 -17.1075 -34.1784 8.87208 -64.5719 1.12012 29.024 -0.289942 5.00749 -0.149321 0.621993 1.81177 -11.8849 -16.6308 0.0 0.0 0.0 -0.533956 -1.47211 5.36101 -9.05549 0.265595 1.36292 14.5892 -29.4086 -2.55012 35.3097 -0.0 -0.0 -0.0 0.0 -0.0 22.0489 5.3624 11.3742 7.97127 0.409284 1.15319 3.31742 -13.597 0.483473 -26.1089 0.0 0.0 0.0 0.0 0.0 
1170.05 734.124 -1486.17 178.923 76.154 175.931 -1.35191 0.699162 3.56875 -1.34495 0.470807 3.60594 -1.30868 -0.380475 3.61658 -1.32688 0.195082 3.63128 -1.21924 -6.37617 -6.51909 -1.10294 -6.21326 -7.67899 -0.0 0.0 -0.0 -2.01328 -19.3851 -6.6267 14.3404 -27.7503 56.3643 2.70014 -53.2078 1.35255 -41.9476 -3.16063 4.197 -0.476281 3.36322 -1.73681 -0.0 0.0 -0.0 9.18204 -11.2959 -17.2162 -33.8279 8.11906 -65.4828 1.14168 29.4896 -0.300479 5.31984 -0.156826 0.661187 1.7512 -10.7196 -15.823 0.0 0.0 0.0 -1.21122 -1.3292 4.37944 -10.5941 0.289164 1.59783 12.4516 -29.3051 -2.19626 34.9762 -0.0 -0.0 -0.0 0.0 -0.0 22.3249 6.09745 11.722 8.00951 0.411632 1.15857 2.57166 -13.1435 0.375255 -25.9166 0.0 0.0 0.0 0.0 0.0 
1153.67 732.708 -1494.01 179.577 73.9759 175.265 -1.39016 0.649888 3.50812 -1.38341 0.425485 3.5423 -1.3507 -0.412424 3.54384 -1.36819 0.152068 3.56449 -1.1545 -4.97158 -6.49037 -1.04465 -3.70071 -7.48396 -0.0 0.0 -0.0 -2.11319 -19.0953 -6.80806 14.1988 -28.135 56.7104 2.79894 -54.1895 1.43217 -42.8754 -3.26203 4.25944 -0.250066 3.72502 -0.0888597 -0.0 0.0 -0.0 9.22375 -10.3052 -17.3879 -33.3597 7.07344 -66.9227 1.1714 30.1246 -0.315251 5.835 -0.168736 0.725916 1.67806 -9.08418 -14.7523 0.0 0.0 0.0 -2.22009 -1.10053 3.10682 -12.7917 0.311871 1.93423 9.65554 -29.1964 -1.72226 34.5822 -0.0 -0.0 -0.0 0.0 -0.0 22.9002 7.02559 11.8874 7.96114 0.408662 1.15176 0.978337 -12.5311 0.143208 -25.7288 0.0 0.0 0.0 0.0 0.0 
1139.18 731.84 -1497.86 175.232 72.6072 179.565 -1.65783 0.663395 3.381 -1.65159 0.447038 3.4163 -1.61842 -0.378023 3.42462 -1.63475 0.167245 3.44134 -0.963734 -2.98449 -6.42809 -0.850734 -0.159436 -7.19221 -0.0 0.0 -0.0 -2.29948 -18.1197 -7.08961 13.9373 -28.0124 56.982 2.87093 -54.8765 1.49081 -44.1706 -3.40522 4.34385 0.0670564 4.34144 2.25975 -0.0 0.0 -0.0 9.08342 -8.9837 -17.2457 -33.401 5.48193 -69.1077 1.20047 30.7378 -0.329973 6.52494 -0.183774 0.812767 1.57229 -6.81394 -13.2092 0.0 0.0 0.0 -2.52858 -0.675649 1.53071 -15.551 0.322088 2.35743 5.70776 -29.0628 -1.03261 34.0194 -0.0 -0.0 -0.0 0.0 -0.0 22.4989 7.82126 12.5791 7.17193 0.36103 1.04019 -1.43655 -11.7866 -0.211277 -25.505 0.0 0.0 0.0 0.0 0.0 
1119.7 730.984 -1504.02 174.82 71.8994 179.621 -1.91144 0.617734 3.35734 -1.90526 0.402971 3.3898 -1.87465 -0.429757 3.38651 -1.89064 0.11015 3.41186 -0.572667 -0.731591 -6.03843 -0.449874 3.59586 -6.54275 -0.0 0.0 -0.0 -2.53846 -17.2686 -7.49794 13.3513 -27.8099 57.3878 2.95723 -55.6703 1.56174 -45.6553 -3.57167 4.4366 0.488426 5.71566 5.59381 -0.0 0.0 -0.0 8.89677 -6.88434 -17.0538 -31.9224 3.86018 -71.2196 1.24262 31.6135 -0.351798 7.51011 -0.203431 0.937078 1.52581 -3.62072 -11.6786 0.0 0.0 0.0 -3.00838 -0.1289 1.0341 -19.0118 0.306088 2.88809 4.0957 -28.8833 -0.743556 34.1864 -0.0 -0.0 -0.0 0.0 -0.0 21.7096 8.41738 11.6619 6.98906 0.350213 1.01425 -5.69429 -11.0539 -0.844008 -25.3542 0.0 0.0 0.0 0.0 0.0 
1106.37 732.184 -1507.46 176.256 71.934 178.111 -1.83776 0.39115 3.3601 -1.8315 0.176669 3.37816 -1.81498 -0.643414 3.32109 -1.83036 -0.11115 3.38094 1.63912 1.55218 -4.89832 1.77285 6.83664 -5.24808 -0.0 0.0 -0.0 -2.70969 -17.2176 -7.86301 12.0967 -27.5487 57.597 2.75006 -53.7096 1.39266 -46.0853 -3.62032 4.46266 1.07637 7.72734 10.2539 -0.0 0.0 -0.0 9.29761 -3.98137 -18.0179 -30.2272 2.84233 -72.1036 1.02739 26.9726 -0.246401 7.93133 -0.211182 0.990325 1.36852 -0.611093 -9.42642 0.0 0.0 0.0 -2.59809 1.00033 0.652037 -18.8031 0.307961 2.85614 2.96109 -28.5022 -0.536979 33.5686 -0.0 -0.0 -0.0 0.0 -0.0 21.0753 9.08231 10.8929 6.83911 0.341405 0.992957 -11.6872 -11.7486 -1.74852 -23.1668 0.0 0.0 0.0 0.0 0.0 
1081.01 743.379 -1511.33 176.212 72.0793 177.713 -1.76204 0.352264 3.47322 -1.75534 0.130678 3.48857 -1.74113 -0.710402 3.41805 -1.7574 -0.162013 3.48725 4.68482 3.87383 -3.95596 4.88924 10.0999 -4.3165 -0.0 0.0 -0.0 -2.70345 -17.1627 -7.84214 9.62953 -27.3506 57.961 2.34874 -49.3145 1.0783 -46.6428 -3.68369 4.4959 1.84029 9.10112 15.846 -0.0 0.0 -0.0 9.91186 -0.18511 -19.4642 -25.551 1.15225 -71.8314 0.766362 20.7884 -0.140575 8.53382 -0.221588 1.06658 0.905466 -0.150918 -6.12019 0.0 0.0 0.0 -1.53684 2.64215 0.225043 -20.006 0.295568 3.04028 2.50579 -29.3417 -0.460194 33.5345 -0.0 -0.0 -0.0 0.0 -0.0 20.9093 8.67792 10.7404 6.97214 0.349216 1.01185 -15.2376 -12.6463 -2.28985 -20.1069 0.0 0.0 0.0 0.0 0.0 
